<svg width="208" height="60" viewBox="0 0 208 60" fill="none" xmlns="http://www.w3.org/2000/svg">
<path d="M42.841 14.296C42.841 14.296 65.9756 29.14 42.2561 47.2349C39.5901 49.5225 34.3783 52.997 31.2478 54.5795C28.8398 55.8007 26.5693 56.5919 24.1784 55.3191C18.7087 52.395 8.61203 45.6696 4.91393 34.3517C3.58949 30.2752 4.60432 25.7859 7.5628 22.6726C7.6144 22.621 7.6488 22.5866 7.7004 22.535C10.3149 19.8517 14.3914 19.0605 17.6939 20.8322C19.9815 22.0706 21.8736 24.4787 21.4436 29.1744C18.6915 29.3636 13.1186 28.0219 13.0497 32.3565C12.4993 39.8215 15.303 38.6346 21.22 38.7034C21.2544 46.4092 20.1019 48.0089 28.9258 47.5617C33.5011 47.5101 31.8155 41.0599 32.1079 38.2562C37.7668 38.2046 40.5705 39.2539 40.0545 32.1329C39.9857 27.8155 34.3955 29.14 31.6607 28.9508C31.6607 28.9508 31.2306 24.169 28.6678 19.9549C26.3457 16.1536 22.2864 12.8339 15.1998 13.9004C15.0278 13.9348 14.8386 13.952 14.6494 13.9864C2.38546 16.1708 -3.82391 30.086 2.52307 40.8019C7.3736 48.9721 16.421 55.8523 23.0088 59C23.1464 59.0688 23.2668 59.1376 23.4044 59.2064C25.7953 60.3588 28.5818 60.2212 30.9382 59.0172C40.2265 54.2699 77.5515 33.0445 42.841 14.296Z" fill="#009444"/>
<path d="M36.4424 32.9248C36.3908 32.7872 36.3219 32.6496 36.2187 32.5464C36.0639 32.4088 35.8575 32.3056 35.6339 32.3056H28.2893L28.0141 29.2611C28.0141 29.2267 27.6013 25.219 25.5373 21.8305C23.886 19.1128 21.6671 17.6508 18.8291 17.3584C19.0183 17.4444 19.1903 17.5304 19.3795 17.6336C21.7704 18.9236 25.6921 22.1917 25.0212 29.4847L24.7632 32.3056H17.4186C17.0746 32.3056 16.7994 32.4948 16.6618 32.7872C16.6446 32.8216 16.6274 32.856 16.6102 32.9076C16.593 32.9936 16.5758 33.0796 16.5758 33.1656V34.5589C16.5758 34.6277 16.593 34.6965 16.6102 34.7653C16.6446 34.8857 16.6962 34.9889 16.765 35.0749C16.9198 35.2813 17.1606 35.4017 17.4358 35.4017H24.7632C24.7632 35.4361 24.746 35.4533 24.746 35.4877V43.1419C24.746 43.2451 24.7632 43.3483 24.7976 43.4515C24.9008 43.6923 25.1072 43.8815 25.3652 43.9675C25.434 43.9847 25.5201 44.0019 25.6061 44.0019H26.5521H28.0141C28.1001 44.0019 28.1861 43.9847 28.2721 43.9503C28.3581 43.9331 28.4269 43.8987 28.4957 43.8471C28.7193 43.6923 28.8741 43.4343 28.8741 43.1419V35.5049C28.8741 35.4705 28.8741 35.4533 28.8569 35.4189H35.6683C36.1327 35.4189 36.5284 35.0405 36.5284 34.5589V33.1656C36.494 33.0796 36.4768 33.0108 36.4424 32.9248Z" fill="white"/>
<path d="M24.5052 1.08584L26.208 0.913838C26.638 0.896638 27.2572 1.08584 27.6012 1.34385L29.8889 3.01229C30.2329 3.27029 30.8177 3.3219 31.2133 3.1499L37.9043 0.208613C38.2827 0.0194076 38.8504 -0.0493943 39.1772 0.0366081C39.4868 0.139811 39.504 0.449419 39.1772 0.724627L34.2234 5.21396C33.8966 5.50636 33.8966 5.98797 34.189 6.29758L37.5775 9.70327C37.8871 10.0129 38.4547 10.1677 38.8676 10.0473L41.31 9.35926C41.7228 9.23886 42.17 9.25606 42.3248 9.37646C42.4797 9.49686 42.3249 9.82368 41.998 10.0989L40.6736 11.1997C40.3468 11.4749 40.2436 11.8877 40.45 12.1285C40.6564 12.3693 40.8628 12.679 40.8972 12.7994C40.8972 12.8166 40.8972 12.8338 40.8972 12.851C40.8972 12.9542 40.8284 13.023 40.7252 13.0746C40.708 13.0746 40.6908 13.0918 40.6736 13.0918C40.5188 13.109 40.1748 13.0058 39.8996 12.851C39.6244 12.6962 39.2804 12.9026 39.1256 13.2982L38.2999 15.4138C38.1451 15.8094 37.8699 15.8954 37.6979 15.5858C37.5259 15.2762 37.3711 14.6742 37.3539 14.2442C37.3539 14.2442 37.3539 14.2442 37.3539 14.227L37.3367 13.4014L37.3023 12.3693C37.2851 11.9393 36.9755 11.4061 36.6143 11.1997L32.2282 8.72285C31.8498 8.51644 31.437 8.67125 31.2822 9.08406L28.8397 15.775C28.6849 16.1878 28.3925 16.2223 28.1689 15.8438L28.1345 15.7922C27.9109 15.4138 27.756 14.7602 27.7905 14.3302L28.3409 7.38121C28.3753 6.9512 28.1173 6.40078 27.7561 6.17718L25.4856 4.71514C25.1244 4.47433 24.7116 3.95831 24.5396 3.5627L24.0236 1.87706C23.8687 1.44705 24.0752 1.10304 24.5052 1.08584Z" fill="#FF998A"/>
<path d="M66.612 48.8522C65.7348 48.8522 65.064 48.6114 64.5824 48.1297C64.1007 47.6481 63.8771 46.9601 63.8771 46.0829V27.7644C63.8771 26.87 64.1351 26.1819 64.634 25.7003C65.1328 25.2359 65.8552 24.9951 66.784 24.9951C67.558 24.9951 68.1601 25.1499 68.6073 25.4423C69.0545 25.7347 69.4673 26.2335 69.8457 26.9044L76.9323 39.6327H75.7799L82.832 26.9044C83.2277 26.2163 83.6577 25.7347 84.1049 25.4423C84.5521 25.1499 85.1713 24.9951 85.9281 24.9951C86.8054 24.9951 87.4762 25.2359 87.9578 25.7003C88.4222 26.1819 88.663 26.8528 88.663 27.7644V46.0657C88.663 46.9429 88.4394 47.6309 87.975 48.1126C87.5106 48.5942 86.8398 48.835 85.9281 48.835C85.0509 48.835 84.3801 48.5942 83.8985 48.1126C83.4169 47.6309 83.1933 46.9429 83.1933 46.0657V34.7134H83.8813L78.5663 43.95C78.2567 44.4316 77.9299 44.7929 77.5859 45.0337C77.2419 45.2745 76.7947 45.3949 76.2099 45.3949C75.6594 45.3949 75.2122 45.2745 74.851 45.0337C74.507 44.7929 74.1802 44.4316 73.8878 43.95L68.5385 34.679H69.2953V46.0657C69.2953 46.9429 69.0717 47.6309 68.6073 48.1126C68.1945 48.5942 67.5064 48.8522 66.612 48.8522Z" fill="#009444"/>
<path d="M101.408 48.904C99.4304 48.904 97.7104 48.56 96.2827 47.872C94.8379 47.184 93.7371 46.2035 92.963 44.9135C92.189 43.6406 91.8106 42.127 91.8106 40.3898C91.8106 38.7213 92.1718 37.2421 92.9114 35.9865C93.6511 34.7136 94.6659 33.7332 95.9387 33.0108C97.2288 32.2883 98.6908 31.9443 100.342 31.9443C101.546 31.9443 102.647 32.1335 103.645 32.5292C104.642 32.9076 105.485 33.4752 106.19 34.2148C106.895 34.9544 107.429 35.8316 107.79 36.8637C108.151 37.8957 108.34 39.0481 108.34 40.321C108.34 40.7682 108.22 41.0778 107.979 41.3014C107.738 41.5078 107.36 41.611 106.827 41.611H96.7299V38.8417H104.057L103.524 39.2717C103.524 38.4633 103.421 37.7925 103.197 37.2937C102.974 36.7949 102.647 36.3993 102.217 36.1412C101.787 35.8832 101.254 35.7456 100.617 35.7456C99.9292 35.7456 99.3444 35.9004 98.8456 36.2272C98.3468 36.5541 97.9684 37.0185 97.7104 37.6377C97.4524 38.2569 97.3148 39.0309 97.3148 39.9426V40.235C97.3148 41.8002 97.6588 42.9182 98.3468 43.5891C99.0348 44.2599 100.118 44.5867 101.563 44.5867C102.045 44.5867 102.595 44.5179 103.232 44.3975C103.851 44.2771 104.453 44.1051 105.038 43.8815C105.605 43.6578 106.104 43.6235 106.517 43.7611C106.93 43.8987 107.257 44.1395 107.497 44.4835C107.721 44.8275 107.859 45.2059 107.876 45.6359C107.893 46.0659 107.807 46.4787 107.583 46.8915C107.36 47.3043 106.999 47.614 106.5 47.8376C105.726 48.1816 104.917 48.4568 104.04 48.6288C103.163 48.818 102.286 48.904 101.408 48.904Z" fill="#009444"/>
<path d="M117.216 48.9038C115.823 48.9038 114.601 48.5598 113.535 47.8889C112.468 47.2009 111.626 46.2205 111.024 44.9477C110.422 43.6748 110.112 42.1612 110.112 40.4239C110.112 38.6351 110.422 37.1214 111.024 35.8658C111.626 34.6102 112.468 33.647 113.535 32.9589C114.601 32.2709 115.823 31.9441 117.216 31.9441C118.42 31.9441 119.521 32.2365 120.484 32.8041C121.447 33.3717 122.101 34.1114 122.427 35.023H122.066V27.9708C122.066 27.0076 122.324 26.2679 122.823 25.7519C123.322 25.2531 124.062 24.9951 125.008 24.9951C125.936 24.9951 126.659 25.2531 127.175 25.7519C127.691 26.2507 127.949 26.9904 127.949 27.9708V45.8765C127.949 46.8397 127.708 47.5793 127.209 48.0953C126.71 48.5941 125.988 48.8522 125.042 48.8522C124.113 48.8522 123.408 48.5941 122.892 48.0953C122.393 47.5965 122.135 46.8569 122.135 45.8765V44.0016L122.496 45.6185C122.187 46.6161 121.55 47.4073 120.57 48.0093C119.572 48.6113 118.471 48.9038 117.216 48.9038ZM119.091 44.5865C119.693 44.5865 120.209 44.4316 120.673 44.1392C121.137 43.8468 121.499 43.3996 121.739 42.7804C121.997 42.1784 122.118 41.3872 122.118 40.4239C122.118 38.9447 121.825 37.8955 121.258 37.2418C120.69 36.5882 119.968 36.2614 119.073 36.2614C118.471 36.2614 117.955 36.399 117.491 36.6914C117.027 36.9838 116.665 37.431 116.407 38.0331C116.149 38.6351 116.012 39.4435 116.012 40.4239C116.012 41.8688 116.304 42.9352 116.872 43.5888C117.457 44.2596 118.196 44.5865 119.091 44.5865Z" fill="#009444"/>
<path d="M140.23 48.8519C139.267 48.8519 138.51 48.5767 137.994 48.0435C137.461 47.5103 137.203 46.7535 137.203 45.7902V30.2582H132.025C131.217 30.2582 130.598 30.0518 130.168 29.6218C129.738 29.1918 129.531 28.5898 129.531 27.7985C129.531 26.9901 129.738 26.3709 130.168 25.9581C130.598 25.5453 131.217 25.3389 132.025 25.3389H148.452C149.26 25.3389 149.88 25.5453 150.31 25.9581C150.74 26.3709 150.946 26.9901 150.946 27.7985C150.946 28.5898 150.74 29.209 150.31 29.6218C149.88 30.0518 149.26 30.2582 148.452 30.2582H143.275V45.7902C143.275 46.7535 143.017 47.5103 142.518 48.0435C142.002 48.5767 141.245 48.8519 140.23 48.8519Z" fill="#FF998A"/>
<path d="M152.976 48.8521C152.012 48.8521 151.273 48.5941 150.757 48.0953C150.241 47.5965 149.983 46.8569 149.983 45.8764V34.9541C149.983 34.0081 150.223 33.2857 150.722 32.7697C151.221 32.2708 151.926 32.0128 152.855 32.0128C153.784 32.0128 154.489 32.2708 154.971 32.7697C155.452 33.2685 155.693 34.0081 155.693 34.9541V36.313H155.366C155.59 34.9885 156.158 33.9565 157.069 33.1825C157.981 32.4085 159.116 32.0129 160.492 31.9612C161.129 31.944 161.61 32.0989 161.92 32.4429C162.247 32.7869 162.401 33.4233 162.436 34.3349C162.436 35.1261 162.264 35.7453 161.937 36.2098C161.61 36.6742 160.974 36.9494 160.062 37.0354L159.305 37.1042C158.136 37.2074 157.293 37.5342 156.76 38.0846C156.226 38.6178 155.968 39.4263 155.968 40.4755V45.8936C155.968 46.8569 155.71 47.5965 155.212 48.1125C154.678 48.5941 153.939 48.8521 152.976 48.8521Z" fill="#FF998A"/>
<path d="M167.183 29.6735C166.151 29.6735 165.36 29.4327 164.792 28.9511C164.225 28.4695 163.949 27.7642 163.949 26.8354C163.949 25.941 164.225 25.2358 164.792 24.7542C165.36 24.2725 166.151 24.0317 167.183 24.0317C168.267 24.0317 169.075 24.2725 169.626 24.7542C170.176 25.2358 170.451 25.9238 170.451 26.8354C170.451 27.7642 170.176 28.4695 169.626 28.9511C169.075 29.4327 168.267 29.6735 167.183 29.6735ZM167.183 48.852C166.254 48.852 165.549 48.5768 165.033 48.0264C164.534 47.476 164.276 46.6848 164.276 45.6527V35.2293C164.276 34.1972 164.534 33.406 165.033 32.8556C165.532 32.3052 166.254 32.03 167.183 32.03C168.129 32.03 168.852 32.3052 169.385 32.8556C169.901 33.406 170.159 34.1972 170.159 35.2293V45.6527C170.159 46.6848 169.901 47.476 169.402 48.0264C168.886 48.5768 168.164 48.852 167.183 48.852Z" fill="#FF998A"/>
<path d="M176.454 54.7866C175.525 54.7866 174.82 54.5285 174.304 54.0297C173.805 53.5309 173.547 52.7913 173.547 51.8109V34.9544C173.547 34.0084 173.788 33.286 174.287 32.77C174.786 32.2711 175.491 32.0131 176.42 32.0131C177.366 32.0131 178.088 32.2711 178.587 32.77C179.086 33.2688 179.327 34.0084 179.327 34.9544V36.8637L178.965 35.2468C179.275 34.2492 179.911 33.458 180.892 32.856C181.872 32.2539 182.99 31.9443 184.246 31.9443C185.656 31.9443 186.895 32.2883 187.961 32.9592C189.028 33.6472 189.853 34.6104 190.455 35.866C191.057 37.1217 191.35 38.6353 191.35 40.4242C191.35 42.1614 191.057 43.6751 190.455 44.9479C189.853 46.2207 189.028 47.2012 187.961 47.8892C186.895 48.5772 185.656 48.904 184.246 48.904C183.042 48.904 181.941 48.6116 180.978 48.044C180.015 47.4764 179.361 46.7195 179.034 45.8079H179.43V51.8109C179.43 52.7741 179.172 53.5137 178.656 54.0297C178.14 54.5285 177.4 54.7866 176.454 54.7866ZM182.406 44.5867C183.008 44.5867 183.524 44.4319 183.971 44.1395C184.418 43.8471 184.779 43.3999 185.037 42.7806C185.295 42.1786 185.433 41.3874 185.433 40.4242C185.433 38.9449 185.14 37.8957 184.573 37.2421C184.005 36.5885 183.283 36.2617 182.388 36.2617C181.786 36.2617 181.27 36.3993 180.806 36.6917C180.342 36.9841 179.98 37.4313 179.722 38.0333C179.464 38.6353 179.327 39.4437 179.327 40.4242C179.327 41.869 179.619 42.9354 180.187 43.5891C180.754 44.2599 181.494 44.5867 182.406 44.5867Z" fill="#FF998A"/>
<path d="M195.495 48.5428C194.893 48.5428 194.411 48.388 194.05 48.0956C193.672 47.8032 193.431 47.4248 193.293 46.9604C193.156 46.4959 193.173 45.9971 193.311 45.4639C193.448 44.9307 193.741 44.4319 194.154 43.9675L201.808 35.3328V36.6573H195.272C194.566 36.6573 194.033 36.4681 193.655 36.0897C193.276 35.7113 193.087 35.178 193.087 34.4728C193.087 33.7676 193.276 33.2344 193.655 32.8732C194.033 32.512 194.566 32.3228 195.272 32.3228H204.611C205.265 32.3228 205.815 32.4776 206.228 32.77C206.641 33.0624 206.933 33.4408 207.071 33.9052C207.209 34.3696 207.226 34.8684 207.088 35.3844C206.951 35.9177 206.675 36.3993 206.263 36.8637L198.419 45.7391V44.2255H205.454C206.933 44.2255 207.673 44.9479 207.673 46.3755C207.673 47.0808 207.484 47.614 207.105 47.9924C206.727 48.3708 206.177 48.56 205.454 48.56H195.495V48.5428Z" fill="#FF998A"/>
</svg>
